<svg id="kity_svg_6" xmlns="http://www.w3.org/2000/svg" xmlns:xlink="http://www.w3.org/1999/xlink" version="1.1" width="1342" height="700" style="background: rgb(251, 251, 251); visibility: visible;" viewBox="0 0 1342 700"><defs id="kity_defs_7"><linearGradient id="kity_linearGradient_17" x1="0" y1="0" x2="0" y2="1"><stop id="kity_stop_18" offset="0" stop-color="rgb(255, 255, 255)"></stop><stop id="kity_stop_19" offset="1" stop-color="rgb(204, 204, 204)"></stop></linearGradient><marker id="kity_marker_2" orient="auto" refX="6" refY="0" viewBox="-7 -7 14 14" markerWidth="7" markerHeight="7" markerUnits="userSpaceOnUse"><path id="kity_path_3" fill="rgb(115, 161, 191)" stroke="none" d="M6,0A6,6,0,1,1,-6,0A6,6,0,1,1,6,0"></path></marker></defs><g id="kity_g_8"><g id="minder1" text-rendering="optimize-speed"><g id="minder_connect_group1"><path id="kity_path_31" fill="none" stroke="rgb(115, 161, 191)" stroke-width="1" d="M648,352.5A220.5,269,0,0,1,868.5,83.5"></path><path id="kity_path_71" fill="none" stroke="rgb(115, 161, 191)" stroke-width="1" d="M648,352.5A220.5,103,0,0,1,868.5,249.5"></path><path id="kity_path_111" fill="none" stroke="rgb(115, 161, 191)" stroke-width="1" d="M938.5,83.5C953.5,83.5,953.5,45.5,968.5,45.5L1046.5,45.5"></path><path id="kity_path_119" fill="none" stroke="rgb(115, 161, 191)" stroke-width="1" d="M938.5,83.5C953.5,83.5,953.5,97.5,968.5,97.5L1058.5,97.5"></path><path id="kity_path_127" fill="none" stroke="rgb(115, 161, 191)" stroke-width="1" d="M938.5,83.5C953.5,83.5,953.5,149.5,968.5,149.5L1046.5,149.5"></path><path id="kity_path_151" fill="none" stroke="rgb(115, 161, 191)" stroke-width="1" d="M648,352.5A224.5,19,0,0,0,872.5,371.5"></path><path id="kity_path_183" fill="none" stroke="rgb(115, 161, 191)" stroke-width="1" d="M648,352.5A220.5,129,0,0,0,868.5,481.5"></path><path id="kity_path_191" fill="none" stroke="rgb(115, 161, 191)" stroke-width="1" d="M981.5,481.5C996.5,481.5,996.5,443.5,1011.5,443.5L1074.5,443.5"></path><path id="kity_path_199" fill="none" stroke="rgb(115, 161, 191)" stroke-width="1" d="M981.5,481.5C996.5,481.5,996.5,495.5,1011.5,495.5L1061.5,495.5"></path><path id="kity_path_207" fill="none" stroke="rgb(115, 161, 191)" stroke-width="1" d="M981.5,481.5C996.5,481.5,996.5,547.5,1011.5,547.5L1094.5,547.5"></path><path id="kity_path_215" fill="none" stroke="rgb(115, 161, 191)" stroke-width="1" d="M648,352.5A220.5,269,0,0,0,868.5,621.5"></path><path id="kity_path_223" fill="none" stroke="rgb(115, 161, 191)" stroke-width="1" d="M981.5,621.5C996.5,621.5,996.5,609.5,1011.5,609.5L1179.5,609.5"></path><path id="kity_path_231" fill="none" stroke="rgb(115, 161, 191)" stroke-width="1" d="M981.5,621.5C996.5,621.5,996.5,661.5,1011.5,661.5L1087.5,661.5"></path><path id="kity_path_247" fill="none" stroke="rgb(115, 161, 191)" stroke-width="1" d="M648,352.5A220.5,262,0,0,0,427.5,90.5"></path><path id="kity_path_255" fill="none" stroke="rgb(115, 161, 191)" stroke-width="1" d="M286.5,90.5C279,90.5,279,78.5,271.5,78.5L159.5,78.5"></path><path id="kity_path_271" fill="none" stroke="rgb(115, 161, 191)" stroke-width="1" d="M648,352.5A220.5,148,0,0,0,427.5,204.5"></path><path id="kity_path_279" fill="none" stroke="rgb(115, 161, 191)" stroke-width="1" d="M286.5,204.5C271.5,204.5,271.5,192.5,256.5,192.5L175.5,192.5"></path><path id="kity_path_295" fill="none" stroke="rgb(115, 161, 191)" stroke-width="1" d="M286.5,204.5C271.5,204.5,271.5,244.5,256.5,244.5L175.5,244.5"></path><path id="kity_path_311" fill="none" stroke="rgb(115, 161, 191)" stroke-width="1" d="M980.5,249.5C995.5,249.5,995.5,211.5,1010.5,211.5L1059.5,211.5"></path><path id="kity_path_319" fill="none" stroke="rgb(115, 161, 191)" stroke-width="1" d="M980.5,249.5C995.5,249.5,995.5,263.5,1010.5,263.5L1069.5,263.5"></path><path id="kity_path_327" fill="none" stroke="rgb(115, 161, 191)" stroke-width="1" d="M286.5,90.5C271.5,90.5,271.5,130.5,256.5,130.5L165.5,130.5"></path><path id="kity_path_335" fill="none" stroke="rgb(115, 161, 191)" stroke-width="1" d="M648,352.5A220.5,44,0,0,1,427.5,396.5"></path><path id="kity_path_343" fill="none" stroke="rgb(115, 161, 191)" stroke-width="1" d="M215.5,396.5C200.5,396.5,200.5,306.5,185.5,306.5L59.5,306.5"></path><path id="kity_path_359" fill="none" stroke="rgb(115, 161, 191)" stroke-width="1" d="M215.5,396.5C200.5,396.5,200.5,358.5,185.5,358.5L23.5,358.5"></path><path id="kity_path_367" fill="none" stroke="rgb(115, 161, 191)" stroke-width="1" d="M215.5,396.5C200.5,396.5,200.5,410.5,185.5,410.5L47.5,410.5"></path><path id="kity_path_375" fill="none" stroke="rgb(115, 161, 191)" stroke-width="1" d="M215.5,396.5C200.5,396.5,200.5,462.5,185.5,462.5L20.5,462.5"></path><path id="kity_path_383" fill="none" stroke="rgb(115, 161, 191)" stroke-width="1" d="M215.5,396.5C200.5,396.5,200.5,514.5,185.5,514.5L23.5,514.5"></path><path id="kity_path_391" fill="none" stroke="rgb(115, 161, 191)" stroke-width="1" d="M1058.5,97.5C1073.5,97.5,1073.5,97.5,1088.5,97.5L1322.5,97.5"></path><path id="kity_path_399" fill="none" stroke="rgb(115, 161, 191)" stroke-width="1" d="M648,352.5A220.5,262,0,0,1,427.5,614.5"></path><path id="kity_path_407" fill="none" stroke="rgb(115, 161, 191)" stroke-width="1" d="M301.5,614.5C286.5,614.5,286.5,576.5,271.5,576.5L193.5,576.5"></path><path id="kity_path_415" fill="none" stroke="rgb(115, 161, 191)" stroke-width="1" d="M301.5,614.5C286.5,614.5,286.5,628.5,271.5,628.5L193.5,628.5"></path><path id="kity_path_423" fill="none" stroke="rgb(115, 161, 191)" stroke-width="1" d="M301.5,614.5C286.5,614.5,286.5,680.5,271.5,680.5L169.5,680.5"></path><path id="kity_path_463" fill="none" stroke="rgb(115, 161, 191)" stroke-width="1" d="M998.5,371.5C1013.5,371.5,1013.5,385.5,1028.5,385.5L1118.5,385.5"></path><path id="kity_path_464" fill="none" stroke="rgb(115, 161, 191)" stroke-width="1" d="M159.5,78.5C144.5,78.5,144.5,78.5,129.5,78.5L39.5,78.5"></path><path id="kity_path_466" fill="none" stroke="rgb(115, 161, 191)" stroke-width="1" d="M980.5,249.5C995.5,249.5,995.5,315.5,1010.5,315.5L1123.5,315.5"></path></g><g id="minder_node1"><path id="node_outline1" fill="rgb(115, 161, 191)" stroke="rgb(115, 161, 191)" d="M550.5,332.5h195a5,5,0,0,1,5,5v30a5,5,0,0,1,-5,5h-195a5,5,0,0,1,-5,-5v-30a5,5,0,0,1,5,-5z" stroke-width="3"></path><g id="node_text1" fill="white"><text id="kity_text_22" text-rendering="inherit" font-size="16" dy=".8em" y="344.5" x="569.5">vue基础——组件通讯</text></g></g><g id="kity_g_12" display="none"><path id="kity_path_13" fill="none" stroke="none" d="M569.5,352.5h0v0h0z"></path></g><g id="kity_g_14" display="none"><path id="kity_path_15" fill="none" stroke="none" d="M569.5,352.5h0v0h0z"></path><path id="kity_path_16" fill="none" stroke="none"></path></g><g id="minder_node2"><g id="node_expander1" style="cursor: pointer;"><path id="kity_path_36" fill="white" stroke="gray" d="M869.5,83.5A6,6,0,1,1,857.5,83.5A6,6,0,1,1,869.5,83.5"></path><path id="kity_path_37" fill="none" stroke="gray" d="M859,83.5L868,83.5"></path></g><path id="node_outline2" fill="rgb(238, 243, 246)" stroke="rgb(115, 161, 191)" d="M873.5,70.5h62a3,3,0,0,1,3,3v20a3,3,0,0,1,-3,3h-62a3,3,0,0,1,-3,-3v-20a3,3,0,0,1,3,-3z" stroke-width="1"></path><g id="node_text2" fill="black"><text id="kity_text_33" text-rendering="inherit" font-size="14" dy=".8em" y="76.5" x="890.5">插槽</text></g></g><g id="minder_node7"><g id="node_expander6" style="cursor: pointer;"><path id="kity_path_76" fill="white" stroke="gray" d="M869.5,249.5A6,6,0,1,1,857.5,249.5A6,6,0,1,1,869.5,249.5"></path><path id="kity_path_77" fill="none" stroke="gray" d="M859,249.5L868,249.5"></path></g><path id="node_outline7" fill="rgb(238, 243, 246)" stroke="rgb(115, 161, 191)" d="M873.5,236.5h104a3,3,0,0,1,3,3v20a3,3,0,0,1,-3,3h-104a3,3,0,0,1,-3,-3v-20a3,3,0,0,1,3,-3z" stroke-width="1"></path><g id="node_text7" fill="black"><text id="kity_text_73" text-rendering="inherit" font-size="14" dy=".8em" y="242.5" x="890.5">全局通讯塔</text></g></g><g id="minder_node12"><g id="node_expander11" style="cursor: pointer;" display="none"><path id="kity_path_116" fill="white" stroke="gray" d="M978.5,31.5A6,6,0,1,1,966.5,31.5A6,6,0,1,1,978.5,31.5"></path><path id="kity_path_117" fill="none" stroke="gray"></path></g><path id="node_outline12" fill="none" stroke="none" d="M983.5,20.5h58a5,5,0,0,1,5,5v12a5,5,0,0,1,-5,5h-58a5,5,0,0,1,-5,-5v-12a5,5,0,0,1,5,-5z" stroke-width="3"></path><g id="node_text12" fill="black"><text id="kity_text_113" text-rendering="inherit" font-size="12" dy=".8em" y="25.5" x="988.5">具名插槽</text></g></g><g id="minder_node13"><g id="node_expander12" style="cursor: pointer;"><path id="kity_path_124" fill="white" stroke="gray" d="M978.5,83.5A6,6,0,1,1,966.5,83.5A6,6,0,1,1,978.5,83.5"></path><path id="kity_path_125" fill="none" stroke="gray" d="M968,83.5L977,83.5"></path></g><path id="node_outline13" fill="none" stroke="none" d="M983.5,72.5h70a5,5,0,0,1,5,5v12a5,5,0,0,1,-5,5h-70a5,5,0,0,1,-5,-5v-12a5,5,0,0,1,5,-5z" stroke-width="3"></path><g id="node_text13" fill="black"><text id="kity_text_121" text-rendering="inherit" font-size="12" dy=".8em" y="77.5" x="988.5">插槽作用域</text></g></g><g id="minder_node14"><g id="node_expander13" style="cursor: pointer;" display="none"><path id="kity_path_132" fill="white" stroke="gray" d="M978.5,135.5A6,6,0,1,1,966.5,135.5A6,6,0,1,1,978.5,135.5"></path><path id="kity_path_133" fill="none" stroke="gray"></path></g><path id="node_outline14" fill="none" stroke="none" d="M983.5,124.5h58a5,5,0,0,1,5,5v12a5,5,0,0,1,-5,5h-58a5,5,0,0,1,-5,-5v-12a5,5,0,0,1,5,-5z" stroke-width="3"></path><g id="node_text14" fill="black"><text id="kity_text_129" text-rendering="inherit" font-size="12" dy=".8em" y="129.5" x="988.5">默认插槽</text></g></g><g id="minder_node17" opacity="1"><g id="node_expander16" style="cursor: pointer;"><path id="kity_path_156" fill="white" stroke="gray" d="M873.5,371.5A6,6,0,1,1,861.5,371.5A6,6,0,1,1,873.5,371.5"></path><path id="kity_path_157" fill="none" stroke="gray" d="M863,371.5L872,371.5"></path></g><path id="node_outline17" fill="rgb(238, 243, 246)" stroke="rgb(115, 161, 191)" d="M877.5,358.5h118a3,3,0,0,1,3,3v20a3,3,0,0,1,-3,3h-118a3,3,0,0,1,-3,-3v-20a3,3,0,0,1,3,-3z" stroke-width="1"></path><g id="node_text17" fill="black"><text id="kity_text_153" text-rendering="inherit" font-size="14" dy=".8em" y="364.5" x="894.5">兄弟组件通讯</text></g></g><g id="minder_node21"><g id="node_expander20" style="cursor: pointer;"><path id="kity_path_188" fill="white" stroke="gray" d="M869.5,481.5A6,6,0,1,1,857.5,481.5A6,6,0,1,1,869.5,481.5"></path><path id="kity_path_189" fill="none" stroke="gray" d="M859,481.5L868,481.5"></path></g><path id="node_outline21" fill="rgb(238, 243, 246)" stroke="rgb(115, 161, 191)" d="M873.5,468.5h105a3,3,0,0,1,3,3v20a3,3,0,0,1,-3,3h-105a3,3,0,0,1,-3,-3v-20a3,3,0,0,1,3,-3z" stroke-width="1"></path><g id="node_text21" fill="black"><text id="kity_text_185" text-rendering="inherit" font-size="14" dy=".8em" y="474.5" x="890.5">父 ===》子</text></g></g><g id="minder_node22"><g id="node_expander21" style="cursor: pointer;" display="none"><path id="kity_path_196" fill="white" stroke="gray" d="M1021.5,429.5A6,6,0,1,1,1009.5,429.5A6,6,0,1,1,1021.5,429.5"></path><path id="kity_path_197" fill="none" stroke="gray"></path></g><path id="node_outline22" fill="none" stroke="none" d="M1026.5,418.5h43a5,5,0,0,1,5,5v12a5,5,0,0,1,-5,5h-43a5,5,0,0,1,-5,-5v-12a5,5,0,0,1,5,-5z" stroke-width="3"></path><g id="node_text22" fill="black"><text id="kity_text_193" text-rendering="inherit" font-size="12" dy=".8em" y="423.5" x="1031.5">props</text></g></g><g id="minder_node23"><g id="node_expander22" style="cursor: pointer;" display="none"><path id="kity_path_204" fill="white" stroke="gray" d="M1021.5,481.5A6,6,0,1,1,1009.5,481.5A6,6,0,1,1,1021.5,481.5"></path><path id="kity_path_205" fill="none" stroke="gray"></path></g><path id="node_outline23" fill="none" stroke="none" d="M1026.5,470.5h30a5,5,0,0,1,5,5v12a5,5,0,0,1,-5,5h-30a5,5,0,0,1,-5,-5v-12a5,5,0,0,1,5,-5z" stroke-width="3"></path><g id="node_text23" fill="black"><text id="kity_text_201" text-rendering="inherit" font-size="12" dy=".8em" y="475.5" x="1031.5">refs</text></g></g><g id="minder_node24"><g id="node_expander23" style="cursor: pointer;" display="none"><path id="kity_path_212" fill="white" stroke="gray" d="M1021.5,533.5A6,6,0,1,1,1009.5,533.5A6,6,0,1,1,1021.5,533.5"></path><path id="kity_path_213" fill="none" stroke="gray"></path></g><path id="node_outline24" fill="none" stroke="none" d="M1026.5,522.5h63a5,5,0,0,1,5,5v12a5,5,0,0,1,-5,5h-63a5,5,0,0,1,-5,-5v-12a5,5,0,0,1,5,-5z" stroke-width="3"></path><g id="node_text24" fill="black"><text id="kity_text_209" text-rendering="inherit" font-size="12" dy=".8em" y="527.5" x="1031.5">$children</text></g></g><g id="minder_node25"><g id="node_expander24" style="cursor: pointer;"><path id="kity_path_220" fill="white" stroke="gray" d="M869.5,621.5A6,6,0,1,1,857.5,621.5A6,6,0,1,1,869.5,621.5"></path><path id="kity_path_221" fill="none" stroke="gray" d="M859,621.5L868,621.5"></path></g><path id="node_outline25" fill="rgb(238, 243, 246)" stroke="rgb(115, 161, 191)" d="M873.5,608.5h105a3,3,0,0,1,3,3v20a3,3,0,0,1,-3,3h-105a3,3,0,0,1,-3,-3v-20a3,3,0,0,1,3,-3z" stroke-width="1"></path><g id="node_text25" fill="black"><text id="kity_text_217" text-rendering="inherit" font-size="14" dy=".8em" y="614.5" x="890.5">子 ===》父</text></g></g><g id="minder_node26"><g id="node_expander25" style="cursor: pointer;" display="none"><path id="kity_path_228" fill="white" stroke="gray" d="M1021.5,595.5A6,6,0,1,1,1009.5,595.5A6,6,0,1,1,1021.5,595.5"></path><path id="kity_path_229" fill="none" stroke="gray"></path></g><path id="node_outline26" fill="none" stroke="none" d="M1026.5,584.5h148a5,5,0,0,1,5,5v12a5,5,0,0,1,-5,5h-148a5,5,0,0,1,-5,-5v-12a5,5,0,0,1,5,-5z" stroke-width="3"></path><g id="node_text26" fill="black"><text id="kity_text_225" text-rendering="inherit" font-size="12" dy=".8em" y="589.5" x="1031.5">自定义事件：$emit、$on</text></g></g><g id="minder_node27"><g id="node_expander26" style="cursor: pointer;" display="none"><path id="kity_path_236" fill="white" stroke="gray" d="M1021.5,647.5A6,6,0,1,1,1009.5,647.5A6,6,0,1,1,1021.5,647.5"></path><path id="kity_path_237" fill="none" stroke="gray"></path></g><path id="node_outline27" fill="none" stroke="none" d="M1026.5,636.5h56a5,5,0,0,1,5,5v12a5,5,0,0,1,-5,5h-56a5,5,0,0,1,-5,-5v-12a5,5,0,0,1,5,-5z" stroke-width="3"></path><g id="node_text27" fill="black"><text id="kity_text_233" text-rendering="inherit" font-size="12" dy=".8em" y="641.5" x="1031.5">$parent</text></g></g><g id="minder_node29"><g id="node_expander28" style="cursor: pointer;"><path id="kity_path_252" fill="white" stroke="gray" d="M438.5,90.5A6,6,0,1,1,426.5,90.5A6,6,0,1,1,438.5,90.5"></path><path id="kity_path_253" fill="none" stroke="gray" d="M428,90.5L437,90.5"></path></g><path id="node_outline29" fill="rgb(238, 243, 246)" stroke="rgb(115, 161, 191)" d="M289.5,77.5h133a3,3,0,0,1,3,3v20a3,3,0,0,1,-3,3h-133a3,3,0,0,1,-3,-3v-20a3,3,0,0,1,3,-3z" stroke-width="1"></path><g id="node_text29" fill="black"><text id="kity_text_249" text-rendering="inherit" font-size="14" dy=".8em" y="83.5" x="306.5">祖先 ===》后代</text></g></g><g id="minder_node30" opacity="1"><g id="node_expander29" style="cursor: pointer;"><path id="kity_path_260" fill="white" stroke="gray" d="M273.5,64.5A6,6,0,1,1,261.5,64.5A6,6,0,1,1,273.5,64.5"></path><path id="kity_path_261" fill="none" stroke="gray" d="M263,64.5L272,64.5"></path></g><path id="node_outline30" fill="none" stroke="none" d="M164.5,53.5h92a5,5,0,0,1,5,5v12a5,5,0,0,1,-5,5h-92a5,5,0,0,1,-5,-5v-12a5,5,0,0,1,5,-5z" stroke-width="3"></path><g id="node_text30" fill="black"><text id="kity_text_257" text-rendering="inherit" font-size="12" dy=".8em" y="58.5" x="169.5">provide/inject</text></g></g><g id="minder_node32"><g id="node_expander31" style="cursor: pointer;"><path id="kity_path_276" fill="white" stroke="gray" d="M438.5,204.5A6,6,0,1,1,426.5,204.5A6,6,0,1,1,438.5,204.5"></path><path id="kity_path_277" fill="none" stroke="gray" d="M428,204.5L437,204.5"></path></g><path id="node_outline32" fill="rgb(238, 243, 246)" stroke="rgb(115, 161, 191)" d="M289.5,191.5h133a3,3,0,0,1,3,3v20a3,3,0,0,1,-3,3h-133a3,3,0,0,1,-3,-3v-20a3,3,0,0,1,3,-3z" stroke-width="1"></path><g id="node_text32" fill="black"><text id="kity_text_273" text-rendering="inherit" font-size="14" dy=".8em" y="197.5" x="306.5">后代 ===》祖先</text></g></g><g id="minder_node33"><g id="node_expander32" style="cursor: pointer;" display="none"><path id="kity_path_284" fill="white" stroke="gray" d="M258.5,178.5A6,6,0,1,1,246.5,178.5A6,6,0,1,1,258.5,178.5"></path><path id="kity_path_285" fill="none" stroke="gray" d="M248,178.5L257,178.5"></path></g><path id="node_outline33" fill="none" stroke="none" d="M180.5,167.5h61a5,5,0,0,1,5,5v12a5,5,0,0,1,-5,5h-61a5,5,0,0,1,-5,-5v-12a5,5,0,0,1,5,-5z" stroke-width="3"></path><g id="node_text33" fill="black"><text id="kity_text_281" text-rendering="inherit" font-size="12" dy=".8em" y="172.5" x="185.5">$listeners</text></g></g><g id="minder_node35"><g id="node_expander34" style="cursor: pointer;" display="none"><path id="kity_path_300" fill="white" stroke="gray" d="M258.5,230.5A6,6,0,1,1,246.5,230.5A6,6,0,1,1,258.5,230.5"></path><path id="kity_path_301" fill="none" stroke="gray"></path></g><path id="node_outline35" fill="none" stroke="none" d="M180.5,219.5h61a5,5,0,0,1,5,5v12a5,5,0,0,1,-5,5h-61a5,5,0,0,1,-5,-5v-12a5,5,0,0,1,5,-5z" stroke-width="3"></path><g id="node_text35" fill="black"><text id="kity_text_297" text-rendering="inherit" font-size="12" dy=".8em" y="224.5" x="185.5">dispatch</text></g></g><g id="minder_node37"><g id="node_expander36" style="cursor: pointer;" display="none"><path id="kity_path_316" fill="white" stroke="gray" d="M1020.5,197.5A6,6,0,1,1,1008.5,197.5A6,6,0,1,1,1020.5,197.5"></path><path id="kity_path_317" fill="none" stroke="gray"></path></g><path id="node_outline37" fill="none" stroke="none" d="M1025.5,186.5h29a5,5,0,0,1,5,5v12a5,5,0,0,1,-5,5h-29a5,5,0,0,1,-5,-5v-12a5,5,0,0,1,5,-5z" stroke-width="3"></path><g id="node_text37" fill="black"><text id="kity_text_313" text-rendering="inherit" font-size="12" dy=".8em" y="191.5" x="1030.5">Bus</text></g></g><g id="minder_node38"><g id="node_expander37" style="cursor: pointer;" display="none"><path id="kity_path_324" fill="white" stroke="gray" d="M1020.5,249.5A6,6,0,1,1,1008.5,249.5A6,6,0,1,1,1020.5,249.5"></path><path id="kity_path_325" fill="none" stroke="gray"></path></g><path id="node_outline38" fill="none" stroke="none" d="M1025.5,238.5h39a5,5,0,0,1,5,5v12a5,5,0,0,1,-5,5h-39a5,5,0,0,1,-5,-5v-12a5,5,0,0,1,5,-5z" stroke-width="3"></path><g id="node_text38" fill="black"><text id="kity_text_321" text-rendering="inherit" font-size="12" dy=".8em" y="243.5" x="1030.5">Vuex</text></g></g><g id="minder_node39"><g id="node_expander38" style="cursor: pointer;" display="none"><path id="kity_path_332" fill="white" stroke="gray" d="M258.5,116.5A6,6,0,1,1,246.5,116.5A6,6,0,1,1,258.5,116.5"></path><path id="kity_path_333" fill="none" stroke="gray" d="M248,116.5L257,116.5"></path></g><path id="node_outline39" fill="none" stroke="none" d="M170.5,105.5h71a5,5,0,0,1,5,5v12a5,5,0,0,1,-5,5h-71a5,5,0,0,1,-5,-5v-12a5,5,0,0,1,5,-5z" stroke-width="3"></path><g id="node_text39" fill="black"><text id="kity_text_329" text-rendering="inherit" font-size="12" dy=".8em" y="110.5" x="175.5">boradcast</text></g></g><g id="minder_node40"><g id="node_expander39" style="cursor: pointer;"><path id="kity_path_340" fill="white" stroke="gray" d="M438.5,396.5A6,6,0,1,1,426.5,396.5A6,6,0,1,1,438.5,396.5"></path><path id="kity_path_341" fill="none" stroke="gray" d="M428,396.5L437,396.5"></path></g><path id="node_outline40" fill="rgb(238, 243, 246)" stroke="rgb(115, 161, 191)" d="M218.5,383.5h204a3,3,0,0,1,3,3v20a3,3,0,0,1,-3,3h-204a3,3,0,0,1,-3,-3v-20a3,3,0,0,1,3,-3z" stroke-width="1"></path><g id="node_text40" fill="black"><text id="kity_text_337" text-rendering="inherit" font-size="14" dy=".8em" y="389.5" x="235.5">findComponents系列方法</text></g></g><g id="minder_node41"><g id="node_expander40" style="cursor: pointer;" display="none"><path id="kity_path_348" fill="white" stroke="gray" d="M187.5,292.5A6,6,0,1,1,175.5,292.5A6,6,0,1,1,187.5,292.5"></path><path id="kity_path_349" fill="none" stroke="gray" d="M177,292.5L186,292.5"></path></g><path id="node_outline41" fill="none" stroke="none" d="M64.5,281.5h106a5,5,0,0,1,5,5v12a5,5,0,0,1,-5,5h-106a5,5,0,0,1,-5,-5v-12a5,5,0,0,1,5,-5z" stroke-width="3"></path><g id="node_text41" fill="black"><text id="kity_text_345" text-rendering="inherit" font-size="12" dy=".8em" y="286.5" x="69.5">向上找到最近组件</text></g></g><g id="minder_node43"><g id="node_expander42" style="cursor: pointer;" display="none"><path id="kity_path_364" fill="white" stroke="gray" d="M187.5,344.5A6,6,0,1,1,175.5,344.5A6,6,0,1,1,187.5,344.5"></path><path id="kity_path_365" fill="none" stroke="gray"></path></g><path id="node_outline43" fill="none" stroke="none" d="M28.5,333.5h142a5,5,0,0,1,5,5v12a5,5,0,0,1,-5,5h-142a5,5,0,0,1,-5,-5v-12a5,5,0,0,1,5,-5z" stroke-width="3"></path><g id="node_text43" fill="black"><text id="kity_text_361" text-rendering="inherit" font-size="12" dy=".8em" y="338.5" x="33.5">向上找到所有的指定组件</text></g></g><g id="minder_node44"><g id="node_expander43" style="cursor: pointer;" display="none"><path id="kity_path_372" fill="white" stroke="gray" d="M187.5,396.5A6,6,0,1,1,175.5,396.5A6,6,0,1,1,187.5,396.5"></path><path id="kity_path_373" fill="none" stroke="gray"></path></g><path id="node_outline44" fill="none" stroke="none" d="M52.5,385.5h118a5,5,0,0,1,5,5v12a5,5,0,0,1,-5,5h-118a5,5,0,0,1,-5,-5v-12a5,5,0,0,1,5,-5z" stroke-width="3"></path><g id="node_text44" fill="black"><text id="kity_text_369" text-rendering="inherit" font-size="12" dy=".8em" y="390.5" x="57.5">向下找到最近的组件</text></g></g><g id="minder_node45"><g id="node_expander44" style="cursor: pointer;" display="none"><path id="kity_path_380" fill="white" stroke="gray" d="M187.5,448.5A6,6,0,1,1,175.5,448.5A6,6,0,1,1,187.5,448.5"></path><path id="kity_path_381" fill="none" stroke="gray"></path></g><path id="node_outline45" fill="none" stroke="none" d="M25.5,437.5h145a5,5,0,0,1,5,5v12a5,5,0,0,1,-5,5h-145a5,5,0,0,1,-5,-5v-12a5,5,0,0,1,5,-5z" stroke-width="3"></path><g id="node_text45" fill="black"><text id="kity_text_377" text-rendering="inherit" font-size="12" dy=".8em" y="442.5" x="30.5">向下找到所有的指定 组件</text></g></g><g id="minder_node46"><g id="node_expander45" style="cursor: pointer;" display="none"><path id="kity_path_388" fill="white" stroke="gray" d="M187.5,500.5A6,6,0,1,1,175.5,500.5A6,6,0,1,1,187.5,500.5"></path><path id="kity_path_389" fill="none" stroke="gray"></path></g><path id="node_outline46" fill="none" stroke="none" d="M28.5,489.5h142a5,5,0,0,1,5,5v12a5,5,0,0,1,-5,5h-142a5,5,0,0,1,-5,-5v-12a5,5,0,0,1,5,-5z" stroke-width="3"></path><g id="node_text46" fill="black"><text id="kity_text_385" text-rendering="inherit" font-size="12" dy=".8em" y="494.5" x="33.5">找到指定组件的兄弟组件</text></g></g><g id="minder_node47"><g id="node_expander46" style="cursor: pointer;" display="none"><path id="kity_path_396" fill="white" stroke="gray" d="M1098.5,83.5A6,6,0,1,1,1086.5,83.5A6,6,0,1,1,1098.5,83.5"></path><path id="kity_path_397" fill="none" stroke="gray"></path></g><path id="node_outline47" fill="none" stroke="none" d="M1103.5,72.5h214a5,5,0,0,1,5,5v12a5,5,0,0,1,-5,5h-214a5,5,0,0,1,-5,-5v-12a5,5,0,0,1,5,-5z" stroke-width="3"></path><g id="node_text47" fill="black"><text id="kity_text_393" text-rendering="inherit" font-size="12" dy=".8em" y="77.5" x="1108.5">作用域中的数据是深拷贝还是浅拷贝？</text></g></g><g id="minder_node48"><g id="node_expander47" style="cursor: pointer;"><path id="kity_path_404" fill="white" stroke="gray" d="M438.5,614.5A6,6,0,1,1,426.5,614.5A6,6,0,1,1,438.5,614.5"></path><path id="kity_path_405" fill="none" stroke="gray" d="M428,614.5L437,614.5"></path></g><path id="node_outline48" fill="rgb(238, 243, 246)" stroke="rgb(115, 161, 191)" d="M304.5,601.5h118a3,3,0,0,1,3,3v20a3,3,0,0,1,-3,3h-118a3,3,0,0,1,-3,-3v-20a3,3,0,0,1,3,-3z" stroke-width="1"></path><g id="node_text48" fill="black"><text id="kity_text_401" text-rendering="inherit" font-size="14" dy=".8em" y="607.5" x="321.5">组件通讯实战</text></g></g><g id="minder_node49"><g id="node_expander48" style="cursor: pointer;" display="none"><path id="kity_path_412" fill="white" stroke="gray" d="M273.5,562.5A6,6,0,1,1,261.5,562.5A6,6,0,1,1,273.5,562.5"></path><path id="kity_path_413" fill="none" stroke="gray"></path></g><path id="node_outline49" fill="none" stroke="none" d="M198.5,551.5h58a5,5,0,0,1,5,5v12a5,5,0,0,1,-5,5h-58a5,5,0,0,1,-5,-5v-12a5,5,0,0,1,5,-5z" stroke-width="3"></path><g id="node_text49" fill="black"><text id="kity_text_409" text-rendering="inherit" font-size="12" dy=".8em" y="556.5" x="203.5">表单验证</text></g></g><g id="minder_node50"><g id="node_expander49" style="cursor: pointer;" display="none"><path id="kity_path_420" fill="white" stroke="gray" d="M273.5,614.5A6,6,0,1,1,261.5,614.5A6,6,0,1,1,273.5,614.5"></path><path id="kity_path_421" fill="none" stroke="gray"></path></g><path id="node_outline50" fill="none" stroke="none" d="M198.5,603.5h58a5,5,0,0,1,5,5v12a5,5,0,0,1,-5,5h-58a5,5,0,0,1,-5,-5v-12a5,5,0,0,1,5,-5z" stroke-width="3"></path><g id="node_text50" fill="black"><text id="kity_text_417" text-rendering="inherit" font-size="12" dy=".8em" y="608.5" x="203.5">递归组件</text></g></g><g id="minder_node51"><g id="node_expander50" style="cursor: pointer;" display="none"><path id="kity_path_428" fill="white" stroke="gray" d="M273.5,666.5A6,6,0,1,1,261.5,666.5A6,6,0,1,1,273.5,666.5"></path><path id="kity_path_429" fill="none" stroke="gray"></path></g><path id="node_outline51" fill="none" stroke="none" d="M174.5,655.5h82a5,5,0,0,1,5,5v12a5,5,0,0,1,-5,5h-82a5,5,0,0,1,-5,-5v-12a5,5,0,0,1,5,-5z" stroke-width="3"></path><g id="node_text51" fill="black"><text id="kity_text_425" text-rendering="inherit" font-size="12" dy=".8em" y="660.5" x="179.5">全局提示组件</text></g></g><g id="minder_node28"><g id="node_expander27" style="cursor: pointer;" display="none"><path id="kity_path_244" fill="white" stroke="gray" d="M1038.5,371.5A6,6,0,1,1,1026.5,371.5A6,6,0,1,1,1038.5,371.5"></path><path id="kity_path_245" fill="none" stroke="gray" d="M1028,371.5L1037,371.5"></path></g><path id="node_outline28" fill="none" stroke="none" d="M1043.5,360.5h70a5,5,0,0,1,5,5v12a5,5,0,0,1,-5,5h-70a5,5,0,0,1,-5,-5v-12a5,5,0,0,1,5,-5z" stroke-width="3"></path><g id="node_text28" fill="black"><text id="kity_text_241" text-rendering="inherit" font-size="12" dy=".8em" y="365.5" x="1048.5">共同父组件</text></g></g><g id="minder_node52"><g id="node_expander51" style="cursor: pointer;" display="none"><path id="kity_path_436" fill="white" stroke="gray" d="M131.5,64.5A6,6,0,1,1,119.5,64.5A6,6,0,1,1,131.5,64.5"></path><path id="kity_path_437" fill="none" stroke="gray"></path></g><path id="node_outline52" fill="none" stroke="none" d="M44.5,53.5h70a5,5,0,0,1,5,5v12a5,5,0,0,1,-5,5h-70a5,5,0,0,1,-5,-5v-12a5,5,0,0,1,5,-5z" stroke-width="3"></path><g id="node_text52" fill="black"><text id="kity_text_433" text-rendering="inherit" font-size="12" dy=".8em" y="58.5" x="49.5">单向数据流</text></g></g><g id="minder_node56"><g id="node_expander55" style="cursor: pointer;" display="none"><path id="kity_path_471" fill="white" stroke="gray" d="M1020.5,301.5A6,6,0,1,1,1008.5,301.5A6,6,0,1,1,1020.5,301.5"></path><path id="kity_path_472" fill="none" stroke="gray"></path></g><path id="node_outline56" fill="none" stroke="none" d="M1025.5,290.5h93a5,5,0,0,1,5,5v12a5,5,0,0,1,-5,5h-93a5,5,0,0,1,-5,-5v-12a5,5,0,0,1,5,-5z" stroke-width="3"></path><g id="node_text56" fill="black"><text id="kity_text_468" text-rendering="inherit" font-size="12" dy=".8em" y="295.5" x="1030.5">Global Object</text></g></g></g></g></svg>